<svg width="16" height="14" viewBox="0 0 16 14" fill="none" xmlns="http://www.w3.org/2000/svg">
<path fill-rule="evenodd" clip-rule="evenodd" d="M8.66669 11.0002H13.3334C14.4379 11.0002 15.3334 10.1047 15.3334 9.00016V2.3335C15.3334 1.22893 14.4379 0.333496 13.3334 0.333496H2.66669C1.56212 0.333496 0.666687 1.22893 0.666687 2.3335V9.00016C0.666687 10.1047 1.56212 11.0002 2.66669 11.0002H7.33335V12.3335H5.33335C4.96516 12.3335 4.66669 12.632 4.66669 13.0002C4.66669 13.3684 4.96516 13.6668 5.33335 13.6668H10.6667C11.0349 13.6668 11.3334 13.3684 11.3334 13.0002C11.3334 12.632 11.0349 12.3335 10.6667 12.3335H8.66669V11.0002ZM2.66669 1.66683C2.2985 1.66683 2.00002 1.96531 2.00002 2.3335V9.00016C2.00002 9.36835 2.2985 9.66683 2.66669 9.66683H13.3334C13.7015 9.66683 14 9.36835 14 9.00016V2.3335C14 1.96531 13.7015 1.66683 13.3334 1.66683H2.66669Z" fill="#DA1A35"/>
</svg>
