<svg width="14" height="14" viewBox="0 0 14 14" fill="none" xmlns="http://www.w3.org/2000/svg">
<path d="M3.70376 0.333313C1.65858 0.333313 6.10352e-05 1.99183 6.10352e-05 4.03702V9.96294C6.10352e-05 12.0081 1.65858 13.6666 3.70376 13.6666H9.62969C11.6749 13.6666 13.3334 12.0081 13.3334 9.96294V4.03702C13.3334 1.99183 11.6749 0.333313 9.62969 0.333313H3.70376ZM11.1112 1.81479C11.5201 1.81479 11.8519 2.14665 11.8519 2.55554C11.8519 2.96442 11.5201 3.29628 11.1112 3.29628C10.7023 3.29628 10.3704 2.96442 10.3704 2.55554C10.3704 2.14665 10.7023 1.81479 11.1112 1.81479ZM6.66673 3.29628C8.71191 3.29628 10.3704 4.95479 10.3704 6.99998C10.3704 9.04517 8.71191 10.7037 6.66673 10.7037C4.62154 10.7037 2.96302 9.04517 2.96302 6.99998C2.96302 4.95479 4.62154 3.29628 6.66673 3.29628ZM6.66673 4.77776C6.07736 4.77776 5.51213 5.01188 5.09538 5.42863C4.67863 5.84538 4.44451 6.41061 4.44451 6.99998C4.44451 7.58935 4.67863 8.15458 5.09538 8.57133C5.51213 8.98808 6.07736 9.2222 6.66673 9.2222C7.2561 9.2222 7.82133 8.98808 8.23808 8.57133C8.65482 8.15458 8.88895 7.58935 8.88895 6.99998C8.88895 6.41061 8.65482 5.84538 8.23808 5.42863C7.82133 5.01188 7.2561 4.77776 6.66673 4.77776Z" fill="white"/>
</svg>
