<svg width="11" height="14" viewBox="0 0 11 14" fill="none" xmlns="http://www.w3.org/2000/svg">
<path d="M10.9658 5.8685V3.7705C10.9658 3.7705 9.85685 3.776 8.92035 2.918C8.13335 2.197 8.06785 0.846497 8.06785 0.846497H5.96985C5.96985 0.846497 5.96985 8.0055 5.96985 9.1465C5.96985 10.287 4.97735 10.8775 4.26535 10.8775C3.72885 10.8775 2.50835 10.457 2.50835 9.1335C2.50835 7.7445 3.91135 7.3895 4.27835 7.3895C4.64535 7.3895 4.78985 7.468 4.78985 7.468V5.2535C4.78985 5.2535 4.44885 5.221 4.19985 5.2125C2.08235 5.141 0.331848 7.041 0.331848 9.133C0.331848 10.9005 1.71435 13.0405 4.23935 13.0405C6.92885 13.0405 8.15985 10.7975 8.15985 9.146C8.15985 7.9395 8.15985 5.029 8.15985 5.029C8.15985 5.029 8.93335 5.4615 9.56285 5.6585C10.1923 5.8555 10.9658 5.8685 10.9658 5.8685Z" fill="white"/>
</svg>
