<svg width="14" height="12" viewBox="0 0 14 12" fill="none" xmlns="http://www.w3.org/2000/svg">
<path d="M13.9112 1.96015C13.4165 2.17975 12.8849 2.32764 12.327 2.3943C12.8967 2.05314 13.3342 1.51257 13.5398 0.868355C13.007 1.1843 12.4166 1.41397 11.7881 1.53778C11.2856 1.00168 10.568 0.666687 9.77477 0.666687C7.99394 0.666687 6.68535 2.3282 7.08757 4.05301C4.79585 3.93817 2.76349 2.84021 1.4028 1.17141C0.680163 2.4111 1.02805 4.03284 2.25597 4.85407C1.80446 4.83951 1.37872 4.71571 1.00731 4.509C0.977064 5.78678 1.89296 6.98222 3.21948 7.2483C2.83127 7.35362 2.4061 7.37827 1.97363 7.29536C2.32431 8.39108 3.34273 9.18822 4.55049 9.21063C3.3909 10.1198 1.92994 10.5259 0.466736 10.3534C1.68738 11.136 3.1377 11.5925 4.69502 11.5925C9.81623 11.5925 12.7096 7.26735 12.5348 3.38807C13.0737 2.99874 13.5415 2.51306 13.9112 1.96015Z" fill="white"/>
</svg>
