<svg width="16" height="16" viewBox="0 0 16 16" fill="none" xmlns="http://www.w3.org/2000/svg">
<path fill-rule="evenodd" clip-rule="evenodd" d="M8.00823 0.665955C9.96788 0.666688 11.8073 1.42943 13.1905 2.81336C14.5737 4.19802 15.3349 6.03813 15.3335 7.99558C15.3313 12.033 12.0449 15.3186 8.0075 15.3186H8.00457C6.77832 15.3179 5.57407 15.0106 4.50403 14.4268L0.666138 15.334L1.6599 11.6501C1.0189 10.5398 0.681539 9.27977 0.682273 7.98898C0.683739 3.95087 3.97012 0.665955 8.00823 0.665955ZM10.1064 11.1155C10.4074 11.0886 11.0771 10.7193 11.2138 10.3361C11.3505 9.95296 11.3505 9.62436 11.3098 9.55667C11.277 9.50173 11.2001 9.46462 11.0858 9.4095C11.0579 9.39605 11.0278 9.38153 10.9956 9.36543C10.832 9.28328 10.0256 8.88633 9.87509 8.83178C9.72459 8.77723 9.61484 8.74963 9.50574 8.91393C9.39665 9.07823 9.08251 9.44758 8.98656 9.55667C8.89061 9.66642 8.79531 9.68022 8.63101 9.59807C8.60376 9.58434 8.5665 9.56812 8.52045 9.54808C8.28889 9.44731 7.83498 9.24976 7.31202 8.7838C6.82437 8.3494 6.49577 7.81246 6.39982 7.64816C6.30453 7.48452 6.38996 7.39514 6.47211 7.31365C6.52109 7.26467 6.57734 7.19621 6.6337 7.1276C6.66204 7.0931 6.69042 7.05856 6.71791 7.02645C6.78742 6.94461 6.81772 6.88285 6.85898 6.79875C6.86609 6.78425 6.87353 6.7691 6.88155 6.75306C6.9361 6.64396 6.90849 6.54801 6.86775 6.46586C6.85065 6.43139 6.78459 6.26857 6.7029 6.06719C6.58992 5.78871 6.44703 5.43649 6.36236 5.24807C6.23947 4.97533 6.11 4.96942 5.99302 4.96482C5.89772 4.96088 5.78797 4.96088 5.67887 4.96088C5.56912 4.96088 5.39168 5.00162 5.24118 5.16592C5.23177 5.17616 5.22128 5.18731 5.2099 5.19941C5.03931 5.38083 4.66679 5.77699 4.66679 6.53355C4.66679 7.33537 5.24674 8.10993 5.33481 8.22757L5.33647 8.22979C5.34256 8.23794 5.35408 8.25503 5.37087 8.27995C5.57875 8.58849 6.5954 10.0974 8.13811 10.7055C9.39088 11.1993 9.74134 11.1579 10.0195 11.125C10.049 11.1216 10.0776 11.1182 10.1064 11.1155Z" fill="white"/>
</svg>
